<mxfile host="app.diagrams.net" modified="2024-02-05T11:24:37.384Z" agent="Mozilla/5.0 (Windows NT 10.0; Win64; x64) AppleWebKit/537.36 (KHTML, like Gecko) Chrome/121.0.0.0 Safari/537.36" etag="nIF3O6g7vewkJeTLr2Tv" version="23.1.1" type="device">
  <diagram id="C5RBs43oDa-KdzZeNtuy" name="Page-1">
    <mxGraphModel dx="1050" dy="557" grid="1" gridSize="10" guides="1" tooltips="1" connect="1" arrows="1" fold="1" page="1" pageScale="1" pageWidth="827" pageHeight="1169" math="0" shadow="0">
      <root>
        <mxCell id="WIyWlLk6GJQsqaUBKTNV-0" />
        <mxCell id="WIyWlLk6GJQsqaUBKTNV-1" parent="WIyWlLk6GJQsqaUBKTNV-0" />
        <mxCell id="1GiE_9nnNGHScF9waMoB-10" value="" style="edgeStyle=orthogonalEdgeStyle;rounded=0;orthogonalLoop=1;jettySize=auto;html=1;" parent="WIyWlLk6GJQsqaUBKTNV-1" source="1GiE_9nnNGHScF9waMoB-0" target="1GiE_9nnNGHScF9waMoB-8" edge="1">
          <mxGeometry relative="1" as="geometry" />
        </mxCell>
        <mxCell id="1GiE_9nnNGHScF9waMoB-0" value="Start" style="strokeWidth=2;html=1;shape=mxgraph.flowchart.terminator;whiteSpace=wrap;" parent="WIyWlLk6GJQsqaUBKTNV-1" vertex="1">
          <mxGeometry x="45" y="10" width="110" height="50" as="geometry" />
        </mxCell>
        <mxCell id="1GiE_9nnNGHScF9waMoB-11" value="" style="edgeStyle=orthogonalEdgeStyle;rounded=0;orthogonalLoop=1;jettySize=auto;html=1;" parent="WIyWlLk6GJQsqaUBKTNV-1" source="1GiE_9nnNGHScF9waMoB-2" target="1GiE_9nnNGHScF9waMoB-6" edge="1">
          <mxGeometry relative="1" as="geometry" />
        </mxCell>
        <mxCell id="1GiE_9nnNGHScF9waMoB-13" value="" style="edgeStyle=orthogonalEdgeStyle;rounded=0;orthogonalLoop=1;jettySize=auto;html=1;" parent="WIyWlLk6GJQsqaUBKTNV-1" source="1GiE_9nnNGHScF9waMoB-2" target="1GiE_9nnNGHScF9waMoB-3" edge="1">
          <mxGeometry relative="1" as="geometry" />
        </mxCell>
        <mxCell id="1GiE_9nnNGHScF9waMoB-2" value="input_user =&amp;nbsp;&lt;br&gt;&quot;tambah&quot;" style="strokeWidth=2;html=1;shape=mxgraph.flowchart.decision;whiteSpace=wrap;" parent="WIyWlLk6GJQsqaUBKTNV-1" vertex="1">
          <mxGeometry x="40" y="200" width="120" height="120" as="geometry" />
        </mxCell>
        <mxCell id="1GiE_9nnNGHScF9waMoB-14" value="" style="edgeStyle=orthogonalEdgeStyle;rounded=0;orthogonalLoop=1;jettySize=auto;html=1;" parent="WIyWlLk6GJQsqaUBKTNV-1" source="1GiE_9nnNGHScF9waMoB-3" target="1GiE_9nnNGHScF9waMoB-4" edge="1">
          <mxGeometry relative="1" as="geometry" />
        </mxCell>
        <mxCell id="1GiE_9nnNGHScF9waMoB-22" value="" style="edgeStyle=orthogonalEdgeStyle;rounded=0;orthogonalLoop=1;jettySize=auto;html=1;" parent="WIyWlLk6GJQsqaUBKTNV-1" source="1GiE_9nnNGHScF9waMoB-3" target="1GiE_9nnNGHScF9waMoB-17" edge="1">
          <mxGeometry relative="1" as="geometry" />
        </mxCell>
        <mxCell id="1GiE_9nnNGHScF9waMoB-3" value="input_user =&amp;nbsp;&lt;br&gt;&quot;cari&quot;" style="strokeWidth=2;html=1;shape=mxgraph.flowchart.decision;whiteSpace=wrap;" parent="WIyWlLk6GJQsqaUBKTNV-1" vertex="1">
          <mxGeometry x="40" y="370" width="120" height="120" as="geometry" />
        </mxCell>
        <mxCell id="1GiE_9nnNGHScF9waMoB-15" value="" style="edgeStyle=orthogonalEdgeStyle;rounded=0;orthogonalLoop=1;jettySize=auto;html=1;" parent="WIyWlLk6GJQsqaUBKTNV-1" source="1GiE_9nnNGHScF9waMoB-4" target="1GiE_9nnNGHScF9waMoB-5" edge="1">
          <mxGeometry relative="1" as="geometry" />
        </mxCell>
        <mxCell id="1GiE_9nnNGHScF9waMoB-34" value="" style="edgeStyle=orthogonalEdgeStyle;rounded=0;orthogonalLoop=1;jettySize=auto;html=1;" parent="WIyWlLk6GJQsqaUBKTNV-1" source="1GiE_9nnNGHScF9waMoB-4" target="1GiE_9nnNGHScF9waMoB-33" edge="1">
          <mxGeometry relative="1" as="geometry" />
        </mxCell>
        <mxCell id="1GiE_9nnNGHScF9waMoB-4" value="input_user =&amp;nbsp;&lt;br&gt;&quot;list&quot;" style="strokeWidth=2;html=1;shape=mxgraph.flowchart.decision;whiteSpace=wrap;" parent="WIyWlLk6GJQsqaUBKTNV-1" vertex="1">
          <mxGeometry x="40" y="640" width="120" height="120" as="geometry" />
        </mxCell>
        <mxCell id="1GiE_9nnNGHScF9waMoB-38" value="" style="edgeStyle=orthogonalEdgeStyle;rounded=0;orthogonalLoop=1;jettySize=auto;html=1;" parent="WIyWlLk6GJQsqaUBKTNV-1" source="1GiE_9nnNGHScF9waMoB-5" target="1GiE_9nnNGHScF9waMoB-37" edge="1">
          <mxGeometry relative="1" as="geometry" />
        </mxCell>
        <mxCell id="1GiE_9nnNGHScF9waMoB-40" value="" style="edgeStyle=orthogonalEdgeStyle;rounded=0;orthogonalLoop=1;jettySize=auto;html=1;" parent="WIyWlLk6GJQsqaUBKTNV-1" source="1GiE_9nnNGHScF9waMoB-5" target="1GiE_9nnNGHScF9waMoB-39" edge="1">
          <mxGeometry relative="1" as="geometry" />
        </mxCell>
        <mxCell id="1GiE_9nnNGHScF9waMoB-5" value="input_user =&amp;nbsp;&lt;br&gt;&quot;exit&quot;" style="strokeWidth=2;html=1;shape=mxgraph.flowchart.decision;whiteSpace=wrap;" parent="WIyWlLk6GJQsqaUBKTNV-1" vertex="1">
          <mxGeometry x="40" y="850" width="120" height="120" as="geometry" />
        </mxCell>
        <mxCell id="1GiE_9nnNGHScF9waMoB-12" value="" style="edgeStyle=orthogonalEdgeStyle;rounded=0;orthogonalLoop=1;jettySize=auto;html=1;" parent="WIyWlLk6GJQsqaUBKTNV-1" source="1GiE_9nnNGHScF9waMoB-6" target="1GiE_9nnNGHScF9waMoB-7" edge="1">
          <mxGeometry relative="1" as="geometry" />
        </mxCell>
        <mxCell id="1GiE_9nnNGHScF9waMoB-6" value="input nama,umur,&lt;br&gt;jenis kelamin,&lt;br&gt;lama menginap" style="shape=parallelogram;html=1;strokeWidth=2;perimeter=parallelogramPerimeter;whiteSpace=wrap;rounded=1;arcSize=12;size=0.23;" parent="WIyWlLk6GJQsqaUBKTNV-1" vertex="1">
          <mxGeometry x="260" y="230" width="200" height="60" as="geometry" />
        </mxCell>
        <mxCell id="1GiE_9nnNGHScF9waMoB-7" value="Menampilkan pesan&lt;br&gt;Kamar Ditambahkan" style="rounded=1;whiteSpace=wrap;html=1;absoluteArcSize=1;arcSize=14;strokeWidth=2;" parent="WIyWlLk6GJQsqaUBKTNV-1" vertex="1">
          <mxGeometry x="540" y="235" width="160" height="50" as="geometry" />
        </mxCell>
        <mxCell id="1GiE_9nnNGHScF9waMoB-9" value="" style="edgeStyle=orthogonalEdgeStyle;rounded=0;orthogonalLoop=1;jettySize=auto;html=1;" parent="WIyWlLk6GJQsqaUBKTNV-1" source="1GiE_9nnNGHScF9waMoB-8" target="1GiE_9nnNGHScF9waMoB-2" edge="1">
          <mxGeometry relative="1" as="geometry" />
        </mxCell>
        <mxCell id="1GiE_9nnNGHScF9waMoB-8" value="input_user" style="shape=parallelogram;html=1;strokeWidth=2;perimeter=parallelogramPerimeter;whiteSpace=wrap;rounded=1;arcSize=12;size=0.23;" parent="WIyWlLk6GJQsqaUBKTNV-1" vertex="1">
          <mxGeometry x="35" y="100" width="130" height="60" as="geometry" />
        </mxCell>
        <mxCell id="1GiE_9nnNGHScF9waMoB-16" value="" style="endArrow=classic;html=1;rounded=0;" parent="WIyWlLk6GJQsqaUBKTNV-1" target="1GiE_9nnNGHScF9waMoB-8" edge="1">
          <mxGeometry width="50" height="50" relative="1" as="geometry">
            <mxPoint x="620" y="230" as="sourcePoint" />
            <mxPoint x="180" y="150" as="targetPoint" />
            <Array as="points">
              <mxPoint x="620" y="130" />
            </Array>
          </mxGeometry>
        </mxCell>
        <mxCell id="1GiE_9nnNGHScF9waMoB-23" value="" style="edgeStyle=orthogonalEdgeStyle;rounded=0;orthogonalLoop=1;jettySize=auto;html=1;" parent="WIyWlLk6GJQsqaUBKTNV-1" source="1GiE_9nnNGHScF9waMoB-17" target="1GiE_9nnNGHScF9waMoB-19" edge="1">
          <mxGeometry relative="1" as="geometry" />
        </mxCell>
        <mxCell id="1GiE_9nnNGHScF9waMoB-17" value="input nomer kamar" style="shape=parallelogram;html=1;strokeWidth=2;perimeter=parallelogramPerimeter;whiteSpace=wrap;rounded=1;arcSize=12;size=0.23;" parent="WIyWlLk6GJQsqaUBKTNV-1" vertex="1">
          <mxGeometry x="220" y="400" width="160" height="60" as="geometry" />
        </mxCell>
        <mxCell id="1GiE_9nnNGHScF9waMoB-24" value="" style="edgeStyle=orthogonalEdgeStyle;rounded=0;orthogonalLoop=1;jettySize=auto;html=1;" parent="WIyWlLk6GJQsqaUBKTNV-1" source="1GiE_9nnNGHScF9waMoB-19" target="1GiE_9nnNGHScF9waMoB-21" edge="1">
          <mxGeometry relative="1" as="geometry" />
        </mxCell>
        <mxCell id="1GiE_9nnNGHScF9waMoB-30" value="" style="edgeStyle=orthogonalEdgeStyle;rounded=0;orthogonalLoop=1;jettySize=auto;html=1;" parent="WIyWlLk6GJQsqaUBKTNV-1" source="1GiE_9nnNGHScF9waMoB-19" target="1GiE_9nnNGHScF9waMoB-20" edge="1">
          <mxGeometry relative="1" as="geometry" />
        </mxCell>
        <mxCell id="1GiE_9nnNGHScF9waMoB-19" value="mencari nomer&lt;br&gt;kamar" style="strokeWidth=2;html=1;shape=mxgraph.flowchart.decision;whiteSpace=wrap;" parent="WIyWlLk6GJQsqaUBKTNV-1" vertex="1">
          <mxGeometry x="440" y="375" width="120" height="110" as="geometry" />
        </mxCell>
        <mxCell id="1GiE_9nnNGHScF9waMoB-32" value="" style="edgeStyle=orthogonalEdgeStyle;rounded=0;orthogonalLoop=1;jettySize=auto;html=1;" parent="WIyWlLk6GJQsqaUBKTNV-1" source="1GiE_9nnNGHScF9waMoB-20" edge="1">
          <mxGeometry relative="1" as="geometry">
            <mxPoint x="800" y="430" as="targetPoint" />
          </mxGeometry>
        </mxCell>
        <mxCell id="1GiE_9nnNGHScF9waMoB-20" value="Menampilkan pesan kamar kosong" style="rounded=1;whiteSpace=wrap;html=1;absoluteArcSize=1;arcSize=14;strokeWidth=2;" parent="WIyWlLk6GJQsqaUBKTNV-1" vertex="1">
          <mxGeometry x="442.5" y="540" width="115" height="60" as="geometry" />
        </mxCell>
        <mxCell id="1GiE_9nnNGHScF9waMoB-29" value="" style="edgeStyle=orthogonalEdgeStyle;rounded=0;orthogonalLoop=1;jettySize=auto;html=1;" parent="WIyWlLk6GJQsqaUBKTNV-1" source="1GiE_9nnNGHScF9waMoB-21" edge="1">
          <mxGeometry relative="1" as="geometry">
            <mxPoint x="620" y="130" as="targetPoint" />
            <Array as="points">
              <mxPoint x="800" y="430" />
              <mxPoint x="800" y="130" />
            </Array>
          </mxGeometry>
        </mxCell>
        <mxCell id="1GiE_9nnNGHScF9waMoB-21" value="Menampilkan informasi kamar" style="rounded=1;whiteSpace=wrap;html=1;absoluteArcSize=1;arcSize=14;strokeWidth=2;" parent="WIyWlLk6GJQsqaUBKTNV-1" vertex="1">
          <mxGeometry x="620" y="401.25" width="120" height="57.5" as="geometry" />
        </mxCell>
        <mxCell id="1GiE_9nnNGHScF9waMoB-36" value="" style="edgeStyle=orthogonalEdgeStyle;rounded=0;orthogonalLoop=1;jettySize=auto;html=1;" parent="WIyWlLk6GJQsqaUBKTNV-1" source="1GiE_9nnNGHScF9waMoB-33" edge="1">
          <mxGeometry relative="1" as="geometry">
            <mxPoint x="800" y="560" as="targetPoint" />
          </mxGeometry>
        </mxCell>
        <mxCell id="1GiE_9nnNGHScF9waMoB-33" value="Tampilkan status setiap kamar" style="rounded=1;whiteSpace=wrap;html=1;absoluteArcSize=1;arcSize=14;strokeWidth=2;" parent="WIyWlLk6GJQsqaUBKTNV-1" vertex="1">
          <mxGeometry x="410" y="670" width="150" height="60" as="geometry" />
        </mxCell>
        <mxCell id="1GiE_9nnNGHScF9waMoB-42" value="" style="edgeStyle=orthogonalEdgeStyle;rounded=0;orthogonalLoop=1;jettySize=auto;html=1;" parent="WIyWlLk6GJQsqaUBKTNV-1" source="1GiE_9nnNGHScF9waMoB-37" edge="1">
          <mxGeometry relative="1" as="geometry">
            <mxPoint x="799" y="710" as="targetPoint" />
          </mxGeometry>
        </mxCell>
        <mxCell id="1GiE_9nnNGHScF9waMoB-37" value="Menampilkan pesan&lt;br&gt;Input Yang Anda Masukan Tidak Valid" style="whiteSpace=wrap;html=1;strokeWidth=2;" parent="WIyWlLk6GJQsqaUBKTNV-1" vertex="1">
          <mxGeometry x="15" y="1070" width="170" height="70" as="geometry" />
        </mxCell>
        <mxCell id="1GiE_9nnNGHScF9waMoB-39" value="End" style="strokeWidth=2;html=1;shape=mxgraph.flowchart.terminator;whiteSpace=wrap;" parent="WIyWlLk6GJQsqaUBKTNV-1" vertex="1">
          <mxGeometry x="270" y="880" width="100" height="60" as="geometry" />
        </mxCell>
        <mxCell id="1GiE_9nnNGHScF9waMoB-45" value="True" style="text;html=1;align=center;verticalAlign=middle;resizable=0;points=[];autosize=1;strokeColor=none;fillColor=none;" parent="WIyWlLk6GJQsqaUBKTNV-1" vertex="1">
          <mxGeometry x="185" y="228" width="50" height="30" as="geometry" />
        </mxCell>
        <mxCell id="1GiE_9nnNGHScF9waMoB-46" value="False" style="text;html=1;align=center;verticalAlign=middle;resizable=0;points=[];autosize=1;strokeColor=none;fillColor=none;" parent="WIyWlLk6GJQsqaUBKTNV-1" vertex="1">
          <mxGeometry x="105" y="330" width="50" height="30" as="geometry" />
        </mxCell>
        <mxCell id="1GiE_9nnNGHScF9waMoB-47" value="False" style="text;html=1;align=center;verticalAlign=middle;resizable=0;points=[];autosize=1;strokeColor=none;fillColor=none;" parent="WIyWlLk6GJQsqaUBKTNV-1" vertex="1">
          <mxGeometry x="110" y="554.5" width="50" height="30" as="geometry" />
        </mxCell>
        <mxCell id="1GiE_9nnNGHScF9waMoB-48" value="False" style="text;html=1;align=center;verticalAlign=middle;resizable=0;points=[];autosize=1;strokeColor=none;fillColor=none;" parent="WIyWlLk6GJQsqaUBKTNV-1" vertex="1">
          <mxGeometry x="115" y="790" width="50" height="30" as="geometry" />
        </mxCell>
        <mxCell id="1GiE_9nnNGHScF9waMoB-49" value="False" style="text;html=1;align=center;verticalAlign=middle;resizable=0;points=[];autosize=1;strokeColor=none;fillColor=none;" parent="WIyWlLk6GJQsqaUBKTNV-1" vertex="1">
          <mxGeometry x="115" y="1000" width="50" height="30" as="geometry" />
        </mxCell>
        <mxCell id="1GiE_9nnNGHScF9waMoB-50" value="True" style="text;html=1;align=center;verticalAlign=middle;resizable=0;points=[];autosize=1;strokeColor=none;fillColor=none;" parent="WIyWlLk6GJQsqaUBKTNV-1" vertex="1">
          <mxGeometry x="170" y="390" width="50" height="30" as="geometry" />
        </mxCell>
        <mxCell id="1GiE_9nnNGHScF9waMoB-51" value="True" style="text;html=1;align=center;verticalAlign=middle;resizable=0;points=[];autosize=1;strokeColor=none;fillColor=none;" parent="WIyWlLk6GJQsqaUBKTNV-1" vertex="1">
          <mxGeometry x="235" y="670" width="50" height="30" as="geometry" />
        </mxCell>
        <mxCell id="1GiE_9nnNGHScF9waMoB-52" value="True" style="text;html=1;align=center;verticalAlign=middle;resizable=0;points=[];autosize=1;strokeColor=none;fillColor=none;" parent="WIyWlLk6GJQsqaUBKTNV-1" vertex="1">
          <mxGeometry x="185" y="880" width="50" height="30" as="geometry" />
        </mxCell>
        <mxCell id="7EC98HxvynMpSexB1O0m-0" value="True" style="text;html=1;align=center;verticalAlign=middle;resizable=0;points=[];autosize=1;strokeColor=none;fillColor=none;" vertex="1" parent="WIyWlLk6GJQsqaUBKTNV-1">
          <mxGeometry x="560" y="390" width="50" height="30" as="geometry" />
        </mxCell>
        <mxCell id="7EC98HxvynMpSexB1O0m-1" value="False" style="text;html=1;align=center;verticalAlign=middle;resizable=0;points=[];autosize=1;strokeColor=none;fillColor=none;" vertex="1" parent="WIyWlLk6GJQsqaUBKTNV-1">
          <mxGeometry x="500" y="490" width="50" height="30" as="geometry" />
        </mxCell>
      </root>
    </mxGraphModel>
  </diagram>
</mxfile>
